<svg id="svg" version="1.1" xmlns="http://www.w3.org/2000/svg" xmlns:xlink="http://www.w3.org/1999/xlink" width="400" height="400" viewBox="0, 0, 400,400"><g id="svgg"><path id="path0" transform="scale(1.2) translate(-30,-30)" d="M104.243 63.697 C 84.761 66.586,69.746 81.030,65.722 100.753 C 64.793 105.308,64.652 292.606,65.574 297.656 C 69.413 318.688,84.467 333.273,105.078 335.931 C 111.070 336.703,294.795 336.259,298.272 335.463 C 317.385 331.090,330.645 317.388,334.291 298.242 C 335.354 292.664,335.320 106.648,334.256 101.416 C 330.337 82.157,317.618 68.863,298.633 64.186 C 295.626 63.445,109.106 62.976,104.243 63.697 M297.656 77.206 C 311.187 81.082,320.592 92.329,321.843 106.129 C 322.036 108.261,322.162 151.129,322.126 202.734 L 322.062 295.508 321.181 298.633 C 317.475 311.776,307.454 320.922,294.448 323.033 C 289.893 323.772,108.602 323.570,104.633 322.822 C 91.787 320.399,81.679 310.620,78.621 297.656 C 77.970 294.896,77.930 289.226,77.930 199.609 L 77.930 104.492 78.965 100.747 C 82.583 87.663,93.236 78.052,105.755 76.579 C 107.209 76.408,150.322 76.290,201.563 76.317 L 294.727 76.367 297.656 77.206 M92.370 98.660 C 94.707 123.045,97.181 132.785,103.189 141.255 C 105.924 145.109,106.585 145.748,113.114 150.852 C 117.822 154.531,140.311 171.698,140.921 172.078 C 140.976 172.113,140.240 173.330,139.286 174.784 C 121.081 202.501,154.533 234.722,180.505 214.485 L 181.518 213.696 183.923 215.446 C 186.824 217.557,186.871 216.768,183.551 221.662 L 180.774 225.755 189.357 240.319 C 194.078 248.329,198.360 255.629,198.873 256.540 C 199.385 257.451,199.893 258.198,200.000 258.200 C 200.185 258.202,217.013 229.864,218.457 227.117 L 219.141 225.817 216.672 221.991 C 215.313 219.886,214.082 217.960,213.936 217.711 C 213.773 217.435,214.651 216.557,216.184 215.463 L 218.699 213.669 221.589 215.743 C 247.049 234.009,278.467 200.816,260.555 174.575 C 259.202 172.593,259.005 172.085,259.437 171.691 C 259.725 171.427,265.586 166.932,272.461 161.701 C 294.177 145.179,293.385 145.860,296.952 140.659 C 299.491 136.957,302.028 131.589,303.271 127.290 C 304.553 122.854,308.253 96.794,307.681 96.223 C 307.599 96.141,297.531 103.423,285.309 112.406 C 273.086 121.389,262.471 129.112,261.719 129.569 C 258.126 131.752,260.951 131.663,199.194 131.549 L 142.383 131.445 140.122 130.386 C 138.304 129.534,110.444 109.522,97.266 99.602 C 95.654 98.389,93.835 97.072,93.223 96.675 L 92.110 95.953 92.370 98.660 M248.351 167.403 L 242.430 180.664 221.540 196.680 C 210.051 205.488,200.444 212.747,200.192 212.810 C 199.940 212.873,192.187 207.160,182.964 200.114 C 173.741 193.069,164.322 185.898,162.034 184.180 L 157.874 181.055 152.146 168.359 C 145.090 152.721,145.372 153.661,148.467 156.095 C 151.295 158.320,166.302 169.838,186.298 185.131 C 197.006 193.321,199.872 195.337,200.367 195.027 C 201.053 194.599,246.513 159.803,251.134 156.170 C 252.724 154.919,254.081 153.951,254.148 154.018 C 254.216 154.086,251.607 160.109,248.351 167.403 M109.241 162.207 C 109.121 162.690,105.753 177.500,101.758 195.117 C 97.762 212.734,93.289 232.422,91.817 238.867 C 90.345 245.313,88.904 251.641,88.614 252.930 C 87.592 257.467,87.874 288.917,88.970 292.699 C 92.326 304.280,101.309 312.149,112.897 313.660 C 119.202 314.482,287.928 314.026,290.820 313.179 C 298.636 310.890,305.308 305.396,308.724 298.438 C 311.935 291.897,311.914 292.072,311.914 271.875 C 311.914 251.849,312.235 254.780,308.196 237.891 C 306.938 232.627,302.469 213.555,298.266 195.508 C 294.064 177.461,290.493 162.386,290.332 162.009 C 289.975 161.172,278.731 169.682,279.059 170.539 C 279.164 170.810,280.483 176.451,281.991 183.075 C 283.500 189.698,286.938 204.690,289.632 216.391 C 292.786 230.086,294.530 238.435,294.527 239.828 C 294.510 247.550,289.051 254.654,281.292 257.050 C 278.822 257.813,277.712 257.839,247.231 257.854 L 215.724 257.869 211.349 264.295 L 206.975 270.722 244.210 270.615 L 281.445 270.508 284.570 269.408 C 289.042 267.834,292.809 265.342,296.254 261.680 L 299.219 258.529 299.211 271.550 C 299.199 291.774,297.993 295.524,290.284 299.320 L 287.712 300.586 200.008 300.586 L 112.305 300.586 110.071 299.539 C 102.090 295.798,100.795 292.004,100.787 272.328 L 100.781 258.524 102.322 260.472 C 105.279 264.213,110.398 267.723,115.625 269.595 L 118.164 270.504 155.566 270.615 C 176.138 270.676,192.969 270.632,192.969 270.517 C 192.969 270.402,191.116 267.528,188.851 264.129 L 184.734 257.950 153.402 257.892 C 119.748 257.829,120.031 257.845,115.682 255.741 C 107.419 251.743,104.149 243.865,106.469 233.549 C 107.019 231.103,109.383 220.664,111.721 210.352 C 118.135 182.068,120.703 170.610,120.703 170.280 C 120.703 170.002,109.959 161.328,109.615 161.328 C 109.530 161.328,109.361 161.724,109.241 162.207 M160.469 197.656 C 170.616 205.351,170.079 204.774,167.906 205.644 C 157.866 209.661,147.484 201.181,150.563 191.478 C 150.932 190.317,150.135 189.820,160.469 197.656 M249.760 192.909 C 251.053 202.658,241.130 209.863,232.228 205.638 C 230.348 204.746,229.917 205.197,240.014 197.499 C 249.851 189.999,249.402 190.210,249.760 192.909 " stroke="none" fill="#010001" fill-rule="evenodd"></path><path id="path1"  transform="scale(1.2) translate(-30,-30)" d="M0.000 200.000 L 0.000 400.000 200.000 400.000 L 400.000 400.000 400.000 200.000 L 400.000 0.000 200.000 0.000 L 0.000 0.000 0.000 200.000 M298.633 64.186 C 317.618 68.863,330.337 82.157,334.256 101.416 C 335.320 106.648,335.354 292.664,334.291 298.242 C 330.645 317.388,317.385 331.090,298.272 335.463 C 294.795 336.259,111.070 336.703,105.078 335.931 C 84.467 333.273,69.413 318.688,65.574 297.656 C 64.652 292.606,64.793 105.308,65.722 100.753 C 69.746 81.030,84.761 66.586,104.243 63.697 C 109.106 62.976,295.626 63.445,298.633 64.186 M105.755 76.579 C 93.236 78.052,82.583 87.663,78.965 100.747 L 77.930 104.492 77.930 199.609 C 77.930 289.226,77.970 294.896,78.621 297.656 C 81.679 310.620,91.787 320.399,104.633 322.822 C 108.602 323.570,289.893 323.772,294.448 323.033 C 307.454 320.922,317.475 311.776,321.181 298.633 L 322.062 295.508 322.126 202.734 C 322.162 151.129,322.036 108.261,321.843 106.129 C 320.592 92.329,311.187 81.082,297.656 77.206 L 294.727 76.367 201.563 76.317 C 150.322 76.290,107.209 76.408,105.755 76.579 M97.266 99.602 C 110.444 109.522,138.304 129.534,140.122 130.386 L 142.383 131.445 199.194 131.549 C 260.951 131.663,258.126 131.752,261.719 129.569 C 262.471 129.112,273.086 121.389,285.309 112.406 C 297.531 103.423,307.599 96.141,307.681 96.223 C 308.253 96.794,304.553 122.854,303.271 127.290 C 302.028 131.589,299.491 136.957,296.952 140.659 C 293.385 145.860,294.177 145.179,272.461 161.701 C 265.586 166.932,259.725 171.427,259.437 171.691 C 259.005 172.085,259.202 172.593,260.555 174.575 C 278.467 200.816,247.049 234.009,221.589 215.743 L 218.699 213.669 216.184 215.463 C 214.651 216.557,213.773 217.435,213.936 217.711 C 214.082 217.960,215.313 219.886,216.672 221.991 L 219.141 225.817 218.457 227.117 C 217.013 229.864,200.185 258.202,200.000 258.200 C 199.893 258.198,199.385 257.451,198.873 256.540 C 198.360 255.629,194.078 248.329,189.357 240.319 L 180.774 225.755 183.551 221.662 C 186.871 216.768,186.824 217.557,183.923 215.446 L 181.518 213.696 180.505 214.485 C 154.533 234.722,121.081 202.501,139.286 174.784 C 140.240 173.330,140.976 172.113,140.921 172.078 C 140.311 171.698,117.822 154.531,113.114 150.852 C 106.585 145.748,105.924 145.109,103.189 141.255 C 97.181 132.785,94.707 123.045,92.370 98.660 L 92.110 95.953 93.223 96.675 C 93.835 97.072,95.654 98.389,97.266 99.602 M251.134 156.170 C 246.513 159.803,201.053 194.599,200.367 195.027 C 199.872 195.337,197.006 193.321,186.298 185.131 C 166.302 169.838,151.295 158.320,148.467 156.095 C 145.372 153.661,145.090 152.721,152.146 168.359 L 157.874 181.055 162.034 184.180 C 164.322 185.898,173.741 193.069,182.964 200.114 C 192.187 207.160,199.940 212.873,200.192 212.810 C 200.444 212.747,210.051 205.488,221.540 196.680 L 242.430 180.664 248.351 167.403 C 251.607 160.109,254.216 154.086,254.148 154.018 C 254.081 153.951,252.724 154.919,251.134 156.170 M115.237 165.655 C 118.243 168.034,120.703 170.115,120.703 170.280 C 120.703 170.610,118.135 182.068,111.721 210.352 C 109.383 220.664,107.019 231.103,106.469 233.549 C 104.149 243.865,107.419 251.743,115.682 255.741 C 120.031 257.845,119.748 257.829,153.402 257.892 L 184.734 257.950 188.851 264.129 C 191.116 267.528,192.969 270.402,192.969 270.517 C 192.969 270.632,176.138 270.676,155.566 270.615 L 118.164 270.504 115.625 269.595 C 110.398 267.723,105.279 264.213,102.322 260.472 L 100.781 258.524 100.787 272.328 C 100.795 292.004,102.090 295.798,110.071 299.539 L 112.305 300.586 200.008 300.586 L 287.712 300.586 290.284 299.320 C 297.993 295.524,299.199 291.774,299.211 271.550 L 299.219 258.529 296.254 261.680 C 292.809 265.342,289.042 267.834,284.570 269.408 L 281.445 270.508 244.210 270.615 L 206.975 270.722 211.349 264.295 L 215.724 257.869 247.231 257.854 C 277.712 257.839,278.822 257.813,281.292 257.050 C 289.051 254.654,294.510 247.550,294.527 239.828 C 294.530 238.435,292.786 230.086,289.632 216.391 C 286.938 204.690,283.500 189.698,281.991 183.075 C 280.483 176.451,279.164 170.810,279.059 170.539 C 278.731 169.682,289.975 161.172,290.332 162.009 C 290.493 162.386,294.064 177.461,298.266 195.508 C 302.469 213.555,306.938 232.627,308.196 237.891 C 312.235 254.780,311.914 251.849,311.914 271.875 C 311.914 292.072,311.935 291.897,308.724 298.438 C 305.308 305.396,298.636 310.890,290.820 313.179 C 287.928 314.026,119.202 314.482,112.897 313.660 C 101.309 312.149,92.326 304.280,88.970 292.699 C 87.874 288.917,87.592 257.467,88.614 252.930 C 88.904 251.641,90.345 245.313,91.817 238.867 C 93.289 232.422,97.762 212.734,101.758 195.117 C 109.951 158.990,109.408 161.328,109.615 161.328 C 109.701 161.328,112.231 163.275,115.237 165.655 M150.563 191.478 C 147.484 201.181,157.866 209.661,167.906 205.644 C 170.079 204.774,170.616 205.351,160.469 197.656 C 150.135 189.820,150.932 190.317,150.563 191.478 M240.014 197.499 C 229.917 205.197,230.348 204.746,232.228 205.638 C 241.130 209.863,251.053 202.658,249.760 192.909 C 249.402 190.210,249.851 189.999,240.014 197.499 " stroke="none" fill="#fefffe" fill-rule="evenodd"></path></g></svg>